# xmcd
#
# Track frame offsets:
#	150
#	13230
#	36016
#	58977
#	70755
#	84731
#	97999
#	131908
#	154138
#	169759
#	188432
#	202549
#	225199
#	239654
#	258829
#	279326
#	296968
#
# Disc length: 4247 seconds
#
# Revision: 1
# Processed by: cddbd v1.5.2PL0 Copyright (c) Steve Scherf et al.
# Submitted via: audiograbber 1.83.01
#
DISCID=e7109511
DTITLE=Ry Cooder - My Name is Buddy
DYEAR=2007
DGENRE=Blues
TTITLE0=Suitcase in my Hand
TTITLE1=Cat and Mouse
TTITLE2=Strike!
TTITLE3=J. Edgar
TTITLE4=Footprints in the Snow
TTITLE5=Sundown Town
TTITLE6=Green Dog
TTITLE7=The Dying Truck Driver
TTITLE8=Christmas in Southgate
TTITLE9=Hank Williams
TTITLE10=Red Cat Till I Die
TTITLE11=Three Chords and the Truth
TTITLE12=My Name is Buddy
TTITLE13=One Cat, One Vote, One Beer
TTITLE14=Cardboard Avenue
TTITLE15=Farm Girl
TTITLE16=There's a Bright Side Somewhere
EXTD=
EXTT0=
EXTT1=
EXTT2=
EXTT3=
EXTT4=
EXTT5=
EXTT6=
EXTT7=
EXTT8=
EXTT9=
EXTT10=
EXTT11=
EXTT12=
EXTT13=
EXTT14=
EXTT15=
EXTT16=
PLAYORDER=
